<?xml version="1.0" encoding="UTF-8" standalone="no"?>
<!DOCTYPE svg PUBLIC "-//W3C//DTD SVG 1.1//EN"
 "http://www.w3.org/Graphics/SVG/1.1/DTD/svg11.dtd">
<!-- Generated by graphviz version 2.43.0 (0)
 -->
<!-- Title: B Pages: 1 -->
<svg width="95pt" height="99pt"
 viewBox="0.00 0.00 95.00 99.00" xmlns="http://www.w3.org/2000/svg" xmlns:xlink="http://www.w3.org/1999/xlink">
<g id="graph0" class="graph" transform="scale(1 1) rotate(0) translate(4 95)">
<title>B</title>
<!-- Node1 -->
<g id="Node000001" class="node">
<title>Node1</title>
<g id="a_Node000001"><a xlink:title=" ">
<polygon fill="#999999" stroke="#666666" points="29,-19 0,-19 0,0 29,0 29,-19"/>
<text text-anchor="middle" x="14.5" y="-7" font-family="Helvetica,sans-Serif" font-size="10.00">B</text>
</a>
</g>
</g>
<!-- Node2 -->
<g id="Node000002" class="node">
<title>Node2</title>
<g id="a_Node000002"><a xlink:href="classA.html" target="_top" xlink:title=" ">
<polygon fill="white" stroke="#666666" points="29,-91 0,-91 0,-72 29,-72 29,-91"/>
<text text-anchor="middle" x="14.5" y="-79" font-family="Helvetica,sans-Serif" font-size="10.00">A</text>
</a>
</g>
</g>
<!-- Node2&#45;&gt;Node1 -->
<g id="edge1_Node000001_Node000002" class="edge">
<title>Node2&#45;&gt;Node1</title>
<g id="a_edge1_Node000001_Node000002"><a xlink:title=" ">
<path fill="none" stroke="#9a32cd" stroke-dasharray="5,2" d="M14.5,-61.58C14.5,-47.76 14.5,-29.68 14.5,-19.15"/>
<polygon fill="#9a32cd" stroke="#9a32cd" points="11,-61.92 14.5,-71.92 18,-61.92 11,-61.92"/>
</a>
</g>
<text text-anchor="start" x="17.5" y="-42.5" font-family="Helvetica,sans-Serif" font-size="10.00" fill="grey">m_a</text>
</g>
<!-- Node2&#45;&gt;Node2 -->
<g id="edge2_Node000002_Node000002" class="edge">
<title>Node2&#45;&gt;Node2</title>
<g id="a_edge2_Node000002_Node000002"><a xlink:title=" ">
<path fill="none" stroke="#9a32cd" stroke-dasharray="5,2" d="M39.55,-87.83C43.94,-86.99 47,-84.88 47,-81.5 47,-75.8 38.32,-73.71 29.21,-75.23"/>
<polygon fill="#9a32cd" stroke="#9a32cd" points="39.23,-84.33 29.21,-87.77 39.19,-91.33 39.23,-84.33"/>
</a>
</g>
<text text-anchor="start" x="50" y="-78.5" font-family="Helvetica,sans-Serif" font-size="10.00" fill="grey">m_self</text>
</g>
</g>
</svg>
