<?xml version="1.0" encoding="UTF-8" standalone="no"?>
<!DOCTYPE svg PUBLIC "-//W3C//DTD SVG 1.1//EN"
 "http://www.w3.org/Graphics/SVG/1.1/DTD/svg11.dtd">
<!-- Generated by graphviz version 2.43.0 (0)
 -->
<!-- Title: CryptnoxWallet.h Pages: 1 -->
<svg width="507pt" height="357pt"
 viewBox="0.00 0.00 507.19 357.00" xmlns="http://www.w3.org/2000/svg" xmlns:xlink="http://www.w3.org/1999/xlink">
<g id="graph0" class="graph" transform="scale(1 1) rotate(0) translate(4 353)">
<title>CryptnoxWallet.h</title>
<!-- Node1 -->
<g id="Node000001" class="node">
<title>Node1</title>
<g id="a_Node000001"><a xlink:title="High&#45;level API for interacting with a Cryptnox Hardware Wallet over NFC.">
<polygon fill="#999999" stroke="#666666" points="311.69,-349 210.69,-349 210.69,-330 311.69,-330 311.69,-349"/>
<text text-anchor="middle" x="261.19" y="-337" font-family="Helvetica,sans-Serif" font-size="10.00">CryptnoxWallet.h</text>
</a>
</g>
</g>
<!-- Node2 -->
<g id="Node000002" class="node">
<title>Node2</title>
<g id="a_Node000002"><a xlink:href="platform__compat_8h.html" target="_top" xlink:title="Arduino compatibility shims for non&#45;Arduino (plain C++) builds.">
<polygon fill="white" stroke="#666666" points="322.19,-74 212.19,-74 212.19,-55 322.19,-55 322.19,-74"/>
<text text-anchor="middle" x="267.19" y="-62" font-family="Helvetica,sans-Serif" font-size="10.00">platform_compat.h</text>
</a>
</g>
</g>
<!-- Node1&#45;&gt;Node2 -->
<g id="edge1_Node000001_Node000002" class="edge">
<title>Node1&#45;&gt;Node2</title>
<g id="a_edge1_Node000001_Node000002"><a xlink:title=" ">
<path fill="none" stroke="#63b8ff" d="M311.96,-337.17C381.86,-332.33 499.19,-312.06 499.19,-230.5 499.19,-230.5 499.19,-230.5 499.19,-173.5 499.19,-99.65 401.39,-76.17 332.79,-68.78"/>
<polygon fill="#63b8ff" stroke="#63b8ff" points="332.76,-65.27 322.47,-67.77 332.08,-72.23 332.76,-65.27"/>
</a>
</g>
</g>
<!-- Node7 -->
<g id="Node000007" class="node">
<title>Node7</title>
<g id="a_Node000007"><a xlink:href="CW__Defs_8h.html" target="_top" xlink:title="Shared constants, error codes, and session state for the SDK.">
<polygon fill="white" stroke="#666666" points="81.19,-184 11.19,-184 11.19,-165 81.19,-165 81.19,-184"/>
<text text-anchor="middle" x="46.19" y="-172" font-family="Helvetica,sans-Serif" font-size="10.00">CW_Defs.h</text>
</a>
</g>
</g>
<!-- Node1&#45;&gt;Node7 -->
<g id="edge6_Node000001_Node000007" class="edge">
<title>Node1&#45;&gt;Node7</title>
<g id="a_edge6_Node000001_Node000007"><a xlink:title=" ">
<path fill="none" stroke="#63b8ff" d="M210.29,-331.44C158.32,-321.16 80.56,-296.57 46.19,-239 38.16,-225.54 39.05,-207.44 41.43,-194.01"/>
<polygon fill="#63b8ff" stroke="#63b8ff" points="44.9,-194.55 43.62,-184.03 38.06,-193.05 44.9,-194.55"/>
</a>
</g>
</g>
<!-- Node8 -->
<g id="Node000008" class="node">
<title>Node8</title>
<g id="a_Node000008"><a xlink:href="CW__Utils_8h.html" target="_top" xlink:title="Platform&#45;independent security and memory utilities.">
<polygon fill="white" stroke="#666666" points="81.19,-129 11.19,-129 11.19,-110 81.19,-110 81.19,-129"/>
<text text-anchor="middle" x="46.19" y="-117" font-family="Helvetica,sans-Serif" font-size="10.00">CW_Utils.h</text>
</a>
</g>
</g>
<!-- Node1&#45;&gt;Node8 -->
<g id="edge25_Node000001_Node000008" class="edge">
<title>Node1&#45;&gt;Node8</title>
<g id="a_edge25_Node000001_Node000008"><a xlink:title=" ">
<path fill="none" stroke="#63b8ff" d="M210.65,-336.17C170.82,-332.16 115.46,-321.58 75.19,-294 26.79,-260.84 18.6,-240.34 2.19,-184 -0.17,-175.89 -1.01,-172.81 2.19,-165 7,-153.31 16.53,-143.05 25.49,-135.34"/>
<polygon fill="#63b8ff" stroke="#63b8ff" points="27.79,-137.98 33.42,-129 23.42,-132.51 27.79,-137.98"/>
</a>
</g>
</g>
<!-- Node9 -->
<g id="Node000009" class="node">
<title>Node9</title>
<g id="a_Node000009"><a xlink:href="CW__Logger_8h.html" target="_top" xlink:title="Abstract logging interface.">
<polygon fill="white" stroke="#666666" points="325.19,-239 245.19,-239 245.19,-220 325.19,-220 325.19,-239"/>
<text text-anchor="middle" x="285.19" y="-227" font-family="Helvetica,sans-Serif" font-size="10.00">CW_Logger.h</text>
</a>
</g>
</g>
<!-- Node1&#45;&gt;Node9 -->
<g id="edge10_Node000001_Node000009" class="edge">
<title>Node1&#45;&gt;Node9</title>
<g id="a_edge10_Node000001_Node000009"><a xlink:title=" ">
<path fill="none" stroke="#63b8ff" d="M267.82,-329.88C273.96,-321.32 282.65,-307.54 286.19,-294 290.04,-279.32 289.46,-262.06 288.1,-249.25"/>
<polygon fill="#63b8ff" stroke="#63b8ff" points="291.57,-248.77 286.8,-239.3 284.63,-249.67 291.57,-248.77"/>
</a>
</g>
</g>
<!-- Node10 -->
<g id="Node000010" class="node">
<title>Node10</title>
<g id="a_Node000010"><a xlink:href="CW__Platform_8h.html" target="_top" xlink:title="Abstract platform interface for timing primitives.">
<polygon fill="white" stroke="#666666" points="432.69,-239 343.69,-239 343.69,-220 432.69,-220 432.69,-239"/>
<text text-anchor="middle" x="388.19" y="-227" font-family="Helvetica,sans-Serif" font-size="10.00">CW_Platform.h</text>
</a>
</g>
</g>
<!-- Node1&#45;&gt;Node10 -->
<g id="edge12_Node000001_Node000010" class="edge">
<title>Node1&#45;&gt;Node10</title>
<g id="a_edge12_Node000001_Node000010"><a xlink:title=" ">
<path fill="none" stroke="#63b8ff" d="M271.59,-329.66C293.18,-311.3 343.14,-268.81 370.12,-245.87"/>
<polygon fill="#63b8ff" stroke="#63b8ff" points="372.66,-248.3 378.01,-239.16 368.13,-242.97 372.66,-248.3"/>
</a>
</g>
</g>
<!-- Node11 -->
<g id="Node000011" class="node">
<title>Node11</title>
<g id="a_Node000011"><a xlink:href="CW__SecureChannel_8h.html" target="_top" xlink:title="Cryptnox secure channel protocol over NFC.">
<polygon fill="white" stroke="#666666" points="277.19,-294 157.19,-294 157.19,-275 277.19,-275 277.19,-294"/>
<text text-anchor="middle" x="217.19" y="-282" font-family="Helvetica,sans-Serif" font-size="10.00">CW_SecureChannel.h</text>
</a>
</g>
</g>
<!-- Node1&#45;&gt;Node11 -->
<g id="edge14_Node000001_Node000011" class="edge">
<title>Node1&#45;&gt;Node11</title>
<g id="a_edge14_Node000001_Node000011"><a xlink:title=" ">
<path fill="none" stroke="#63b8ff" d="M253.93,-329.75C247.65,-322.18 238.41,-311.05 230.76,-301.84"/>
<polygon fill="#63b8ff" stroke="#63b8ff" points="233.41,-299.55 224.33,-294.09 228.02,-304.02 233.41,-299.55"/>
</a>
</g>
</g>
<!-- Node3 -->
<g id="Node000003" class="node">
<title>Node3</title>
<g id="a_Node000003"><a xlink:title=" ">
<polygon fill="#e0e0e0" stroke="#999999" points="426.69,-19 373.69,-19 373.69,0 426.69,0 426.69,-19"/>
<text text-anchor="middle" x="400.19" y="-7" font-family="Helvetica,sans-Serif" font-size="10.00">stdint.h</text>
</a>
</g>
</g>
<!-- Node2&#45;&gt;Node3 -->
<g id="edge2_Node000002_Node000003" class="edge">
<title>Node2&#45;&gt;Node3</title>
<g id="a_edge2_Node000002_Node000003"><a xlink:title=" ">
<path fill="none" stroke="#63b8ff" d="M288.56,-54.98C310.34,-46.3 344.36,-32.75 369.12,-22.88"/>
<polygon fill="#63b8ff" stroke="#63b8ff" points="370.44,-26.12 378.44,-19.17 367.85,-19.62 370.44,-26.12"/>
</a>
</g>
</g>
<!-- Node4 -->
<g id="Node000004" class="node">
<title>Node4</title>
<g id="a_Node000004"><a xlink:title=" ">
<polygon fill="#e0e0e0" stroke="#999999" points="284.19,-19 228.19,-19 228.19,0 284.19,0 284.19,-19"/>
<text text-anchor="middle" x="256.19" y="-7" font-family="Helvetica,sans-Serif" font-size="10.00">stddef.h</text>
</a>
</g>
</g>
<!-- Node2&#45;&gt;Node4 -->
<g id="edge3_Node000002_Node000004" class="edge">
<title>Node2&#45;&gt;Node4</title>
<g id="a_edge3_Node000002_Node000004"><a xlink:title=" ">
<path fill="none" stroke="#63b8ff" d="M265.38,-54.75C263.94,-47.8 261.87,-37.85 260.06,-29.13"/>
<polygon fill="#63b8ff" stroke="#63b8ff" points="263.44,-28.17 257.98,-19.09 256.58,-29.59 263.44,-28.17"/>
</a>
</g>
</g>
<!-- Node5 -->
<g id="Node000005" class="node">
<title>Node5</title>
<g id="a_Node000005"><a xlink:title=" ">
<polygon fill="#e0e0e0" stroke="#999999" points="355.69,-19 302.69,-19 302.69,0 355.69,0 355.69,-19"/>
<text text-anchor="middle" x="329.19" y="-7" font-family="Helvetica,sans-Serif" font-size="10.00">string.h</text>
</a>
</g>
</g>
<!-- Node2&#45;&gt;Node5 -->
<g id="edge4_Node000002_Node000005" class="edge">
<title>Node2&#45;&gt;Node5</title>
<g id="a_edge4_Node000002_Node000005"><a xlink:title=" ">
<path fill="none" stroke="#63b8ff" d="M277.16,-54.98C286.32,-47.15 300.13,-35.34 311.22,-25.86"/>
<polygon fill="#63b8ff" stroke="#63b8ff" points="313.73,-28.33 319.05,-19.17 309.18,-23.01 313.73,-28.33"/>
</a>
</g>
</g>
<!-- Node6 -->
<g id="Node000006" class="node">
<title>Node6</title>
<g id="a_Node000006"><a xlink:title=" ">
<polygon fill="#e0e0e0" stroke="#999999" points="210.19,-19 148.19,-19 148.19,0 210.19,0 210.19,-19"/>
<text text-anchor="middle" x="179.19" y="-7" font-family="Helvetica,sans-Serif" font-size="10.00">stdbool.h</text>
</a>
</g>
</g>
<!-- Node2&#45;&gt;Node6 -->
<g id="edge5_Node000002_Node000006" class="edge">
<title>Node2&#45;&gt;Node6</title>
<g id="a_edge5_Node000002_Node000006"><a xlink:title=" ">
<path fill="none" stroke="#63b8ff" d="M253.06,-54.98C239.41,-46.77 218.51,-34.18 202.42,-24.49"/>
<polygon fill="#63b8ff" stroke="#63b8ff" points="203.96,-21.33 193.59,-19.17 200.35,-27.33 203.96,-21.33"/>
</a>
</g>
</g>
<!-- Node7&#45;&gt;Node2 -->
<g id="edge7_Node000007_Node000002" class="edge">
<title>Node7&#45;&gt;Node2</title>
<g id="a_edge7_Node000007_Node000002"><a xlink:title=" ">
<path fill="none" stroke="#63b8ff" d="M58.16,-164.83C76.6,-151.73 113.39,-126.67 147.19,-110 173.87,-96.84 205.47,-85.28 229.54,-77.24"/>
<polygon fill="#63b8ff" stroke="#63b8ff" points="230.95,-80.46 239.36,-74.01 228.76,-73.81 230.95,-80.46"/>
</a>
</g>
</g>
<!-- Node7&#45;&gt;Node8 -->
<g id="edge8_Node000007_Node000008" class="edge">
<title>Node7&#45;&gt;Node8</title>
<g id="a_edge8_Node000007_Node000008"><a xlink:title=" ">
<path fill="none" stroke="#63b8ff" d="M46.19,-164.75C46.19,-157.8 46.19,-147.85 46.19,-139.13"/>
<polygon fill="#63b8ff" stroke="#63b8ff" points="49.7,-139.09 46.19,-129.09 42.7,-139.09 49.7,-139.09"/>
</a>
</g>
</g>
<!-- Node8&#45;&gt;Node2 -->
<g id="edge9_Node000008_Node000002" class="edge">
<title>Node8&#45;&gt;Node2</title>
<g id="a_edge9_Node000008_Node000002"><a xlink:title=" ">
<path fill="none" stroke="#63b8ff" d="M81.21,-110.1C119.22,-100.99 180.04,-86.4 221.71,-76.41"/>
<polygon fill="#63b8ff" stroke="#63b8ff" points="222.7,-79.77 231.61,-74.03 221.07,-72.96 222.7,-79.77"/>
</a>
</g>
</g>
<!-- Node9&#45;&gt;Node2 -->
<g id="edge11_Node000009_Node000002" class="edge">
<title>Node9&#45;&gt;Node2</title>
<g id="a_edge11_Node000009_Node000002"><a xlink:title=" ">
<path fill="none" stroke="#63b8ff" d="M284.23,-219.74C281.42,-194.31 273.22,-120.08 269.31,-84.69"/>
<polygon fill="#63b8ff" stroke="#63b8ff" points="272.74,-83.86 268.17,-74.31 265.79,-84.63 272.74,-83.86"/>
</a>
</g>
</g>
<!-- Node10&#45;&gt;Node2 -->
<g id="edge13_Node000010_Node000002" class="edge">
<title>Node10&#45;&gt;Node2</title>
<g id="a_edge13_Node000010_Node000002"><a xlink:title=" ">
<path fill="none" stroke="#63b8ff" d="M381.69,-219.74C362.4,-193.76 305.3,-116.83 279.77,-82.44"/>
<polygon fill="#63b8ff" stroke="#63b8ff" points="282.5,-80.25 273.73,-74.31 276.88,-84.42 282.5,-80.25"/>
</a>
</g>
</g>
<!-- Node11&#45;&gt;Node2 -->
<g id="edge15_Node000011_Node000002" class="edge">
<title>Node11&#45;&gt;Node2</title>
<g id="a_edge15_Node000011_Node000002"><a xlink:title=" ">
<path fill="none" stroke="#63b8ff" d="M219.16,-274.95C226.51,-242.88 252.59,-129.2 262.93,-84.12"/>
<polygon fill="#63b8ff" stroke="#63b8ff" points="266.37,-84.75 265.19,-74.22 259.55,-83.19 266.37,-84.75"/>
</a>
</g>
</g>
<!-- Node11&#45;&gt;Node7 -->
<g id="edge24_Node000011_Node000007" class="edge">
<title>Node11&#45;&gt;Node7</title>
<g id="a_edge24_Node000011_Node000007"><a xlink:title=" ">
<path fill="none" stroke="#63b8ff" d="M156.96,-280.99C124.01,-276.43 84.97,-265.29 60.19,-239 48.95,-227.07 45.96,-208.25 45.47,-194.19"/>
<polygon fill="#63b8ff" stroke="#63b8ff" points="48.97,-194.17 45.51,-184.16 41.97,-194.14 48.97,-194.17"/>
</a>
</g>
</g>
<!-- Node11&#45;&gt;Node9 -->
<g id="edge19_Node000011_Node000009" class="edge">
<title>Node11&#45;&gt;Node9</title>
<g id="a_edge19_Node000011_Node000009"><a xlink:title=" ">
<path fill="none" stroke="#63b8ff" d="M228.12,-274.98C238.27,-267.07 253.62,-255.11 265.84,-245.58"/>
<polygon fill="#63b8ff" stroke="#63b8ff" points="268.34,-248.08 274.07,-239.17 264.03,-242.56 268.34,-248.08"/>
</a>
</g>
</g>
<!-- Node11&#45;&gt;Node10 -->
<g id="edge23_Node000011_Node000010" class="edge">
<title>Node11&#45;&gt;Node10</title>
<g id="a_edge23_Node000011_Node000010"><a xlink:title=" ">
<path fill="none" stroke="#63b8ff" d="M244.67,-274.98C273.38,-266.09 318.61,-252.07 350.62,-242.15"/>
<polygon fill="#63b8ff" stroke="#63b8ff" points="351.99,-245.39 360.51,-239.08 349.92,-238.7 351.99,-245.39"/>
</a>
</g>
</g>
<!-- Node12 -->
<g id="Node000012" class="node">
<title>Node12</title>
<g id="a_Node000012"><a xlink:href="CW__NfcTransport_8h.html" target="_top" xlink:title="Abstract NFC transport interface.">
<polygon fill="white" stroke="#666666" points="454.69,-129 345.69,-129 345.69,-110 454.69,-110 454.69,-129"/>
<text text-anchor="middle" x="400.19" y="-117" font-family="Helvetica,sans-Serif" font-size="10.00">CW_NfcTransport.h</text>
</a>
</g>
</g>
<!-- Node11&#45;&gt;Node12 -->
<g id="edge16_Node000011_Node000012" class="edge">
<title>Node11&#45;&gt;Node12</title>
<g id="a_edge16_Node000011_Node000012"><a xlink:title=" ">
<path fill="none" stroke="#63b8ff" d="M277.37,-280.01C336.8,-275.16 421.69,-263.96 442.19,-239 467.36,-208.38 435.69,-161.57 415.15,-136.95"/>
<polygon fill="#63b8ff" stroke="#63b8ff" points="417.66,-134.5 408.47,-129.23 412.37,-139.08 417.66,-134.5"/>
</a>
</g>
</g>
<!-- Node13 -->
<g id="Node000013" class="node">
<title>Node13</title>
<g id="a_Node000013"><a xlink:href="CW__CryptoProvider_8h.html" target="_top" xlink:title="Abstract cryptographic primitives interface.">
<polygon fill="white" stroke="#666666" points="188.69,-239 69.69,-239 69.69,-220 188.69,-220 188.69,-239"/>
<text text-anchor="middle" x="129.19" y="-227" font-family="Helvetica,sans-Serif" font-size="10.00">CW_CryptoProvider.h</text>
</a>
</g>
</g>
<!-- Node11&#45;&gt;Node13 -->
<g id="edge20_Node000011_Node000013" class="edge">
<title>Node11&#45;&gt;Node13</title>
<g id="a_edge20_Node000011_Node000013"><a xlink:title=" ">
<path fill="none" stroke="#63b8ff" d="M203.06,-274.98C189.41,-266.77 168.51,-254.18 152.42,-244.49"/>
<polygon fill="#63b8ff" stroke="#63b8ff" points="153.96,-241.33 143.59,-239.17 150.35,-247.33 153.96,-241.33"/>
</a>
</g>
</g>
<!-- Node12&#45;&gt;Node2 -->
<g id="edge17_Node000012_Node000002" class="edge">
<title>Node12&#45;&gt;Node2</title>
<g id="a_edge17_Node000012_Node000002"><a xlink:title=" ">
<path fill="none" stroke="#63b8ff" d="M378.83,-109.98C357.05,-101.3 323.03,-87.75 298.27,-77.88"/>
<polygon fill="#63b8ff" stroke="#63b8ff" points="299.54,-74.62 288.95,-74.17 296.95,-81.12 299.54,-74.62"/>
</a>
</g>
</g>
<!-- Node12&#45;&gt;Node3 -->
<g id="edge18_Node000012_Node000003" class="edge">
<title>Node12&#45;&gt;Node3</title>
<g id="a_edge18_Node000012_Node000003"><a xlink:title=" ">
<path fill="none" stroke="#63b8ff" d="M400.19,-109.66C400.19,-92.17 400.19,-52.8 400.19,-29.27"/>
<polygon fill="#63b8ff" stroke="#63b8ff" points="403.7,-29.16 400.19,-19.16 396.7,-29.16 403.7,-29.16"/>
</a>
</g>
</g>
<!-- Node13&#45;&gt;Node2 -->
<g id="edge21_Node000013_Node000002" class="edge">
<title>Node13&#45;&gt;Node2</title>
<g id="a_edge21_Node000013_Node000002"><a xlink:title=" ">
<path fill="none" stroke="#63b8ff" d="M133.03,-219.95C142.61,-199.28 169.25,-145.66 203.19,-110 214.68,-97.93 229.92,-87.18 242.65,-79.27"/>
<polygon fill="#63b8ff" stroke="#63b8ff" points="244.61,-82.18 251.38,-74.03 241.01,-76.17 244.61,-82.18"/>
</a>
</g>
</g>
<!-- Node13&#45;&gt;Node7 -->
<g id="edge22_Node000013_Node000007" class="edge">
<title>Node13&#45;&gt;Node7</title>
<g id="a_edge22_Node000013_Node000007"><a xlink:title=" ">
<path fill="none" stroke="#63b8ff" d="M115.86,-219.98C103.11,-211.84 83.64,-199.41 68.52,-189.76"/>
<polygon fill="#63b8ff" stroke="#63b8ff" points="70.08,-186.6 59.77,-184.17 66.32,-192.5 70.08,-186.6"/>
</a>
</g>
</g>
</g>
</svg>
