<?xml version="1.0" encoding="UTF-8" standalone="no"?>
<!DOCTYPE svg PUBLIC "-//W3C//DTD SVG 1.1//EN"
 "http://www.w3.org/Graphics/SVG/1.1/DTD/svg11.dtd">
<!-- Generated by graphviz version 2.43.0 (0)
 -->
<!-- Title: CW_SecureChannel.cpp Pages: 1 -->
<svg width="523pt" height="357pt"
 viewBox="0.00 0.00 523.49 357.00" xmlns="http://www.w3.org/2000/svg" xmlns:xlink="http://www.w3.org/1999/xlink">
<g id="graph0" class="graph" transform="scale(1 1) rotate(0) translate(4 353)">
<title>CW_SecureChannel.cpp</title>
<!-- Node1 -->
<g id="Node000001" class="node">
<title>Node1</title>
<g id="a_Node000001"><a xlink:title="Implementation of the Cryptnox secure channel protocol.">
<polygon fill="#999999" stroke="#666666" points="388.99,-349 257.99,-349 257.99,-330 388.99,-330 388.99,-349"/>
<text text-anchor="middle" x="323.49" y="-337" font-family="Helvetica,sans-Serif" font-size="10.00">CW_SecureChannel.cpp</text>
</a>
</g>
</g>
<!-- Node2 -->
<g id="Node000002" class="node">
<title>Node2</title>
<g id="a_Node000002"><a xlink:href="CW__SecureChannel_8h.html" target="_top" xlink:title="Cryptnox secure channel protocol over NFC.">
<polygon fill="white" stroke="#666666" points="257.49,-294 137.49,-294 137.49,-275 257.49,-275 257.49,-294"/>
<text text-anchor="middle" x="197.49" y="-282" font-family="Helvetica,sans-Serif" font-size="10.00">CW_SecureChannel.h</text>
</a>
</g>
</g>
<!-- Node1&#45;&gt;Node2 -->
<g id="edge1_Node000001_Node000002" class="edge">
<title>Node1&#45;&gt;Node2</title>
<g id="a_edge1_Node000001_Node000002"><a xlink:title=" ">
<path fill="none" stroke="#63b8ff" d="M303.24,-329.98C282.79,-321.38 250.96,-307.99 227.56,-298.15"/>
<polygon fill="#63b8ff" stroke="#63b8ff" points="228.68,-294.82 218.1,-294.17 225.96,-301.27 228.68,-294.82"/>
</a>
</g>
</g>
<!-- Node12 -->
<g id="Node000012" class="node">
<title>Node12</title>
<g id="a_Node000012"><a xlink:href="CW__Utils_8h.html" target="_top" xlink:title="Platform&#45;independent security and memory utilities.">
<polygon fill="white" stroke="#666666" points="333.49,-129 263.49,-129 263.49,-110 333.49,-110 333.49,-129"/>
<text text-anchor="middle" x="298.49" y="-117" font-family="Helvetica,sans-Serif" font-size="10.00">CW_Utils.h</text>
</a>
</g>
</g>
<!-- Node1&#45;&gt;Node12 -->
<g id="edge21_Node000001_Node000012" class="edge">
<title>Node1&#45;&gt;Node12</title>
<g id="a_edge21_Node000001_Node000012"><a xlink:title=" ">
<path fill="none" stroke="#63b8ff" d="M322.62,-329.83C320.05,-304.45 312.2,-228.16 304.49,-165 303.45,-156.48 302.19,-147.06 301.1,-139.08"/>
<polygon fill="#63b8ff" stroke="#63b8ff" points="304.54,-138.45 299.7,-129.02 297.61,-139.41 304.54,-138.45"/>
</a>
</g>
</g>
<!-- Node14 -->
<g id="Node000014" class="node">
<title>Node14</title>
<g id="a_Node000014"><a xlink:href="CW__TrustedKeys_8h.html" target="_top" xlink:title="Cryptnox CA public keys used for offline certificate verification.">
<polygon fill="white" stroke="#666666" points="515.49,-184 409.49,-184 409.49,-165 515.49,-165 515.49,-184"/>
<text text-anchor="middle" x="462.49" y="-172" font-family="Helvetica,sans-Serif" font-size="10.00">CW_TrustedKeys.h</text>
</a>
</g>
</g>
<!-- Node1&#45;&gt;Node14 -->
<g id="edge22_Node000001_Node000014" class="edge">
<title>Node1&#45;&gt;Node14</title>
<g id="a_edge22_Node000001_Node000014"><a xlink:title=" ">
<path fill="none" stroke="#63b8ff" d="M340.95,-329.92C368.68,-315.31 422.44,-282.9 449.49,-239 457.71,-225.66 460.83,-208.05 461.97,-194.76"/>
<polygon fill="#63b8ff" stroke="#63b8ff" points="465.49,-194.58 462.54,-184.41 458.5,-194.2 465.49,-194.58"/>
</a>
</g>
</g>
<!-- Node3 -->
<g id="Node000003" class="node">
<title>Node3</title>
<g id="a_Node000003"><a xlink:href="platform__compat_8h.html" target="_top" xlink:title="Arduino compatibility shims for non&#45;Arduino (plain C++) builds.">
<polygon fill="white" stroke="#666666" points="264.49,-74 154.49,-74 154.49,-55 264.49,-55 264.49,-74"/>
<text text-anchor="middle" x="209.49" y="-62" font-family="Helvetica,sans-Serif" font-size="10.00">platform_compat.h</text>
</a>
</g>
</g>
<!-- Node2&#45;&gt;Node3 -->
<g id="edge2_Node000002_Node000003" class="edge">
<title>Node2&#45;&gt;Node3</title>
<g id="a_edge2_Node000002_Node000003"><a xlink:title=" ">
<path fill="none" stroke="#63b8ff" d="M173.94,-274.86C112.42,-251.03 -44.56,-181.37 12.49,-110 28.86,-89.52 93.32,-77.78 144.1,-71.56"/>
<polygon fill="#63b8ff" stroke="#63b8ff" points="144.53,-75.04 154.06,-70.39 143.72,-68.08 144.53,-75.04"/>
</a>
</g>
</g>
<!-- Node8 -->
<g id="Node000008" class="node">
<title>Node8</title>
<g id="a_Node000008"><a xlink:href="CW__NfcTransport_8h.html" target="_top" xlink:title="Abstract NFC transport interface.">
<polygon fill="white" stroke="#666666" points="130.99,-129 21.99,-129 21.99,-110 130.99,-110 130.99,-129"/>
<text text-anchor="middle" x="76.49" y="-117" font-family="Helvetica,sans-Serif" font-size="10.00">CW_NfcTransport.h</text>
</a>
</g>
</g>
<!-- Node2&#45;&gt;Node8 -->
<g id="edge7_Node000002_Node000008" class="edge">
<title>Node2&#45;&gt;Node8</title>
<g id="a_edge7_Node000002_Node000008"><a xlink:title=" ">
<path fill="none" stroke="#63b8ff" d="M177.02,-274.85C160.3,-267.11 136.7,-254.6 119.49,-239 97.28,-218.88 90.48,-212.25 80.49,-184 75.36,-169.5 74.63,-151.99 75.03,-139.04"/>
<polygon fill="#63b8ff" stroke="#63b8ff" points="78.52,-139.19 75.58,-129.01 71.53,-138.8 78.52,-139.19"/>
</a>
</g>
</g>
<!-- Node9 -->
<g id="Node000009" class="node">
<title>Node9</title>
<g id="a_Node000009"><a xlink:href="CW__Logger_8h.html" target="_top" xlink:title="Abstract logging interface.">
<polygon fill="white" stroke="#666666" points="169.49,-184 89.49,-184 89.49,-165 169.49,-165 169.49,-184"/>
<text text-anchor="middle" x="129.49" y="-172" font-family="Helvetica,sans-Serif" font-size="10.00">CW_Logger.h</text>
</a>
</g>
</g>
<!-- Node2&#45;&gt;Node9 -->
<g id="edge10_Node000002_Node000009" class="edge">
<title>Node2&#45;&gt;Node9</title>
<g id="a_edge10_Node000002_Node000009"><a xlink:title=" ">
<path fill="none" stroke="#63b8ff" d="M173.02,-274.86C157.22,-267.85 137.9,-256.27 128.49,-239 121.07,-225.39 122.1,-207.57 124.54,-194.27"/>
<polygon fill="#63b8ff" stroke="#63b8ff" points="127.99,-194.88 126.77,-184.36 121.16,-193.35 127.99,-194.88"/>
</a>
</g>
</g>
<!-- Node10 -->
<g id="Node000010" class="node">
<title>Node10</title>
<g id="a_Node000010"><a xlink:href="CW__CryptoProvider_8h.html" target="_top" xlink:title="Abstract cryptographic primitives interface.">
<polygon fill="white" stroke="#666666" points="256.99,-239 137.99,-239 137.99,-220 256.99,-220 256.99,-239"/>
<text text-anchor="middle" x="197.49" y="-227" font-family="Helvetica,sans-Serif" font-size="10.00">CW_CryptoProvider.h</text>
</a>
</g>
</g>
<!-- Node2&#45;&gt;Node10 -->
<g id="edge12_Node000002_Node000010" class="edge">
<title>Node2&#45;&gt;Node10</title>
<g id="a_edge12_Node000002_Node000010"><a xlink:title=" ">
<path fill="none" stroke="#63b8ff" d="M197.49,-274.75C197.49,-267.8 197.49,-257.85 197.49,-249.13"/>
<polygon fill="#63b8ff" stroke="#63b8ff" points="200.99,-249.09 197.49,-239.09 193.99,-249.09 200.99,-249.09"/>
</a>
</g>
</g>
<!-- Node11 -->
<g id="Node000011" class="node">
<title>Node11</title>
<g id="a_Node000011"><a xlink:href="CW__Defs_8h.html" target="_top" xlink:title="Shared constants, error codes, and session state for the SDK.">
<polygon fill="white" stroke="#666666" points="295.49,-184 225.49,-184 225.49,-165 295.49,-165 295.49,-184"/>
<text text-anchor="middle" x="260.49" y="-172" font-family="Helvetica,sans-Serif" font-size="10.00">CW_Defs.h</text>
</a>
</g>
</g>
<!-- Node2&#45;&gt;Node11 -->
<g id="edge20_Node000002_Node000011" class="edge">
<title>Node2&#45;&gt;Node11</title>
<g id="a_edge20_Node000002_Node000011"><a xlink:title=" ">
<path fill="none" stroke="#63b8ff" d="M221.27,-274.92C236.92,-267.89 256.16,-256.25 265.49,-239 272.88,-225.32 270.65,-207.51 267.13,-194.23"/>
<polygon fill="#63b8ff" stroke="#63b8ff" points="270.36,-192.85 264.05,-184.34 263.68,-194.93 270.36,-192.85"/>
</a>
</g>
</g>
<!-- Node13 -->
<g id="Node000013" class="node">
<title>Node13</title>
<g id="a_Node000013"><a xlink:href="CW__Platform_8h.html" target="_top" xlink:title="Abstract platform interface for timing primitives.">
<polygon fill="white" stroke="#666666" points="440.99,-239 351.99,-239 351.99,-220 440.99,-220 440.99,-239"/>
<text text-anchor="middle" x="396.49" y="-227" font-family="Helvetica,sans-Serif" font-size="10.00">CW_Platform.h</text>
</a>
</g>
</g>
<!-- Node2&#45;&gt;Node13 -->
<g id="edge18_Node000002_Node000013" class="edge">
<title>Node2&#45;&gt;Node13</title>
<g id="a_edge18_Node000002_Node000013"><a xlink:title=" ">
<path fill="none" stroke="#63b8ff" d="M229.46,-274.98C263.3,-265.97 316.88,-251.7 354.2,-241.76"/>
<polygon fill="#63b8ff" stroke="#63b8ff" points="355.5,-245.04 364.26,-239.08 353.7,-238.27 355.5,-245.04"/>
</a>
</g>
</g>
<!-- Node4 -->
<g id="Node000004" class="node">
<title>Node4</title>
<g id="a_Node000004"><a xlink:title=" ">
<polygon fill="#e0e0e0" stroke="#999999" points="102.99,-19 49.99,-19 49.99,0 102.99,0 102.99,-19"/>
<text text-anchor="middle" x="76.49" y="-7" font-family="Helvetica,sans-Serif" font-size="10.00">stdint.h</text>
</a>
</g>
</g>
<!-- Node3&#45;&gt;Node4 -->
<g id="edge3_Node000003_Node000004" class="edge">
<title>Node3&#45;&gt;Node4</title>
<g id="a_edge3_Node000003_Node000004"><a xlink:title=" ">
<path fill="none" stroke="#63b8ff" d="M188.12,-54.98C166.34,-46.3 132.33,-32.75 107.57,-22.88"/>
<polygon fill="#63b8ff" stroke="#63b8ff" points="108.83,-19.62 98.25,-19.17 106.24,-26.12 108.83,-19.62"/>
</a>
</g>
</g>
<!-- Node5 -->
<g id="Node000005" class="node">
<title>Node5</title>
<g id="a_Node000005"><a xlink:title=" ">
<polygon fill="#e0e0e0" stroke="#999999" points="177.49,-19 121.49,-19 121.49,0 177.49,0 177.49,-19"/>
<text text-anchor="middle" x="149.49" y="-7" font-family="Helvetica,sans-Serif" font-size="10.00">stddef.h</text>
</a>
</g>
</g>
<!-- Node3&#45;&gt;Node5 -->
<g id="edge4_Node000003_Node000005" class="edge">
<title>Node3&#45;&gt;Node5</title>
<g id="a_edge4_Node000003_Node000005"><a xlink:title=" ">
<path fill="none" stroke="#63b8ff" d="M199.85,-54.98C190.98,-47.15 177.61,-35.34 166.88,-25.86"/>
<polygon fill="#63b8ff" stroke="#63b8ff" points="169.12,-23.17 159.3,-19.17 164.48,-28.41 169.12,-23.17"/>
</a>
</g>
</g>
<!-- Node6 -->
<g id="Node000006" class="node">
<title>Node6</title>
<g id="a_Node000006"><a xlink:title=" ">
<polygon fill="#e0e0e0" stroke="#999999" points="248.99,-19 195.99,-19 195.99,0 248.99,0 248.99,-19"/>
<text text-anchor="middle" x="222.49" y="-7" font-family="Helvetica,sans-Serif" font-size="10.00">string.h</text>
</a>
</g>
</g>
<!-- Node3&#45;&gt;Node6 -->
<g id="edge5_Node000003_Node000006" class="edge">
<title>Node3&#45;&gt;Node6</title>
<g id="a_edge5_Node000003_Node000006"><a xlink:title=" ">
<path fill="none" stroke="#63b8ff" d="M211.64,-54.75C213.36,-47.72 215.84,-37.62 217.99,-28.84"/>
<polygon fill="#63b8ff" stroke="#63b8ff" points="221.4,-29.63 220.38,-19.09 214.6,-27.97 221.4,-29.63"/>
</a>
</g>
</g>
<!-- Node7 -->
<g id="Node000007" class="node">
<title>Node7</title>
<g id="a_Node000007"><a xlink:title=" ">
<polygon fill="#e0e0e0" stroke="#999999" points="329.49,-19 267.49,-19 267.49,0 329.49,0 329.49,-19"/>
<text text-anchor="middle" x="298.49" y="-7" font-family="Helvetica,sans-Serif" font-size="10.00">stdbool.h</text>
</a>
</g>
</g>
<!-- Node3&#45;&gt;Node7 -->
<g id="edge6_Node000003_Node000007" class="edge">
<title>Node3&#45;&gt;Node7</title>
<g id="a_edge6_Node000003_Node000007"><a xlink:title=" ">
<path fill="none" stroke="#63b8ff" d="M223.79,-54.98C237.59,-46.77 258.73,-34.18 275,-24.49"/>
<polygon fill="#63b8ff" stroke="#63b8ff" points="277.13,-27.29 283.93,-19.17 273.55,-21.28 277.13,-27.29"/>
</a>
</g>
</g>
<!-- Node8&#45;&gt;Node3 -->
<g id="edge8_Node000008_Node000003" class="edge">
<title>Node8&#45;&gt;Node3</title>
<g id="a_edge8_Node000008_Node000003"><a xlink:title=" ">
<path fill="none" stroke="#63b8ff" d="M97.86,-109.98C119.64,-101.3 153.65,-87.75 178.41,-77.88"/>
<polygon fill="#63b8ff" stroke="#63b8ff" points="179.74,-81.12 187.73,-74.17 177.15,-74.62 179.74,-81.12"/>
</a>
</g>
</g>
<!-- Node8&#45;&gt;Node4 -->
<g id="edge9_Node000008_Node000004" class="edge">
<title>Node8&#45;&gt;Node4</title>
<g id="a_edge9_Node000008_Node000004"><a xlink:title=" ">
<path fill="none" stroke="#63b8ff" d="M76.49,-109.66C76.49,-92.17 76.49,-52.8 76.49,-29.27"/>
<polygon fill="#63b8ff" stroke="#63b8ff" points="79.99,-29.16 76.49,-19.16 72.99,-29.16 79.99,-29.16"/>
</a>
</g>
</g>
<!-- Node9&#45;&gt;Node3 -->
<g id="edge11_Node000009_Node000003" class="edge">
<title>Node9&#45;&gt;Node3</title>
<g id="a_edge11_Node000009_Node000003"><a xlink:title=" ">
<path fill="none" stroke="#63b8ff" d="M136.04,-164.66C149.34,-146.69 179.75,-105.64 196.98,-82.38"/>
<polygon fill="#63b8ff" stroke="#63b8ff" points="199.93,-84.28 203.07,-74.16 194.31,-80.11 199.93,-84.28"/>
</a>
</g>
</g>
<!-- Node10&#45;&gt;Node3 -->
<g id="edge13_Node000010_Node000003" class="edge">
<title>Node10&#45;&gt;Node3</title>
<g id="a_edge13_Node000010_Node000003"><a xlink:title=" ">
<path fill="none" stroke="#63b8ff" d="M198.13,-219.74C200.01,-194.31 205.47,-120.08 208.08,-84.69"/>
<polygon fill="#63b8ff" stroke="#63b8ff" points="211.6,-84.54 208.84,-74.31 204.62,-84.02 211.6,-84.54"/>
</a>
</g>
</g>
<!-- Node10&#45;&gt;Node11 -->
<g id="edge14_Node000010_Node000011" class="edge">
<title>Node10&#45;&gt;Node11</title>
<g id="a_edge14_Node000010_Node000011"><a xlink:title=" ">
<path fill="none" stroke="#63b8ff" d="M207.61,-219.98C216.92,-212.15 230.96,-200.34 242.23,-190.86"/>
<polygon fill="#63b8ff" stroke="#63b8ff" points="244.78,-193.29 250.18,-184.17 240.28,-187.93 244.78,-193.29"/>
</a>
</g>
</g>
<!-- Node11&#45;&gt;Node3 -->
<g id="edge15_Node000011_Node000003" class="edge">
<title>Node11&#45;&gt;Node3</title>
<g id="a_edge15_Node000011_Node000003"><a xlink:title=" ">
<path fill="none" stroke="#63b8ff" d="M256.31,-164.66C247.94,-146.93 228.96,-106.73 217.9,-83.32"/>
<polygon fill="#63b8ff" stroke="#63b8ff" points="221.01,-81.71 213.58,-74.16 214.68,-84.7 221.01,-81.71"/>
</a>
</g>
</g>
<!-- Node11&#45;&gt;Node12 -->
<g id="edge16_Node000011_Node000012" class="edge">
<title>Node11&#45;&gt;Node12</title>
<g id="a_edge16_Node000011_Node000012"><a xlink:title=" ">
<path fill="none" stroke="#63b8ff" d="M266.76,-164.75C272.08,-157.34 279.84,-146.5 286.36,-137.41"/>
<polygon fill="#63b8ff" stroke="#63b8ff" points="289.35,-139.26 292.33,-129.09 283.66,-135.18 289.35,-139.26"/>
</a>
</g>
</g>
<!-- Node12&#45;&gt;Node3 -->
<g id="edge17_Node000012_Node000003" class="edge">
<title>Node12&#45;&gt;Node3</title>
<g id="a_edge17_Node000012_Node000003"><a xlink:title=" ">
<path fill="none" stroke="#63b8ff" d="M284.19,-109.98C270.39,-101.77 249.25,-89.18 232.97,-79.49"/>
<polygon fill="#63b8ff" stroke="#63b8ff" points="234.43,-76.28 224.05,-74.17 230.85,-82.29 234.43,-76.28"/>
</a>
</g>
</g>
<!-- Node13&#45;&gt;Node3 -->
<g id="edge19_Node000013_Node000003" class="edge">
<title>Node13&#45;&gt;Node3</title>
<g id="a_edge19_Node000013_Node000003"><a xlink:title=" ">
<path fill="none" stroke="#63b8ff" d="M395.01,-219.96C390.84,-198.34 376.93,-141.01 342.49,-110 323.65,-93.04 298.13,-82.51 274.48,-75.99"/>
<polygon fill="#63b8ff" stroke="#63b8ff" points="275.05,-72.52 264.49,-73.44 273.31,-79.3 275.05,-72.52"/>
</a>
</g>
</g>
<!-- Node14&#45;&gt;Node3 -->
<g id="edge23_Node000014_Node000003" class="edge">
<title>Node14&#45;&gt;Node3</title>
<g id="a_edge23_Node000014_Node000003"><a xlink:title=" ">
<path fill="none" stroke="#63b8ff" d="M454,-164.7C440.25,-150.97 411.7,-124.52 382.49,-110 348.76,-93.24 308.11,-82.36 274.68,-75.56"/>
<polygon fill="#63b8ff" stroke="#63b8ff" points="275.04,-72.07 264.56,-73.58 273.7,-78.94 275.04,-72.07"/>
</a>
</g>
</g>
</g>
</svg>
