<?xml version="1.0" encoding="UTF-8" standalone="no"?>
<!DOCTYPE svg PUBLIC "-//W3C//DTD SVG 1.1//EN"
 "http://www.w3.org/Graphics/SVG/1.1/DTD/svg11.dtd">
<!-- Generated by graphviz version 2.43.0 (0)
 -->
<!-- Title: CW_Defs.h Pages: 1 -->
<svg width="288pt" height="192pt"
 viewBox="0.00 0.00 287.50 192.00" xmlns="http://www.w3.org/2000/svg" xmlns:xlink="http://www.w3.org/1999/xlink">
<g id="graph0" class="graph" transform="scale(1 1) rotate(0) translate(4 188)">
<title>CW_Defs.h</title>
<!-- Node1 -->
<g id="Node000001" class="node">
<title>Node1</title>
<g id="a_Node000001"><a xlink:title=" ">
<polygon fill="#999999" stroke="#666666" points="170.5,-184 100.5,-184 100.5,-165 170.5,-165 170.5,-184"/>
<text text-anchor="middle" x="135.5" y="-172" font-family="Helvetica,sans-Serif" font-size="10.00">CW_Defs.h</text>
</a>
</g>
</g>
<!-- Node2 -->
<g id="Node000002" class="node">
<title>Node2</title>
<g id="a_Node000002"><a xlink:href="platform__compat_8h.html" target="_top" xlink:title="Arduino compatibility shims for non&#45;Arduino (plain C++) builds.">
<polygon fill="white" stroke="#666666" points="190.5,-74 80.5,-74 80.5,-55 190.5,-55 190.5,-74"/>
<text text-anchor="middle" x="135.5" y="-62" font-family="Helvetica,sans-Serif" font-size="10.00">platform_compat.h</text>
</a>
</g>
</g>
<!-- Node1&#45;&gt;Node2 -->
<g id="edge1_Node000001_Node000002" class="edge">
<title>Node1&#45;&gt;Node2</title>
<g id="a_edge1_Node000001_Node000002"><a xlink:title=" ">
<path fill="none" stroke="#63b8ff" d="M132.41,-164.77C129.45,-155.9 125.18,-141.69 123.5,-129 121.47,-113.69 125.1,-96.48 128.88,-83.84"/>
<polygon fill="#63b8ff" stroke="#63b8ff" points="132.29,-84.67 132.11,-74.08 125.64,-82.48 132.29,-84.67"/>
</a>
</g>
</g>
<!-- Node7 -->
<g id="Node000007" class="node">
<title>Node7</title>
<g id="a_Node000007"><a xlink:href="CW__Utils_8h.html" target="_top" xlink:title=" ">
<polygon fill="white" stroke="#666666" points="202.5,-129 132.5,-129 132.5,-110 202.5,-110 202.5,-129"/>
<text text-anchor="middle" x="167.5" y="-117" font-family="Helvetica,sans-Serif" font-size="10.00">CW_Utils.h</text>
</a>
</g>
</g>
<!-- Node1&#45;&gt;Node7 -->
<g id="edge6_Node000001_Node000007" class="edge">
<title>Node1&#45;&gt;Node7</title>
<g id="a_edge6_Node000001_Node000007"><a xlink:title=" ">
<path fill="none" stroke="#63b8ff" d="M140.78,-164.75C145.21,-157.42 151.66,-146.73 157.12,-137.7"/>
<polygon fill="#63b8ff" stroke="#63b8ff" points="160.14,-139.46 162.31,-129.09 154.15,-135.84 160.14,-139.46"/>
</a>
</g>
</g>
<!-- Node3 -->
<g id="Node000003" class="node">
<title>Node3</title>
<g id="a_Node000003"><a xlink:title=" ">
<polygon fill="#e0e0e0" stroke="#999999" points="53,-19 0,-19 0,0 53,0 53,-19"/>
<text text-anchor="middle" x="26.5" y="-7" font-family="Helvetica,sans-Serif" font-size="10.00">stdint.h</text>
</a>
</g>
</g>
<!-- Node2&#45;&gt;Node3 -->
<g id="edge2_Node000002_Node000003" class="edge">
<title>Node2&#45;&gt;Node3</title>
<g id="a_edge2_Node000002_Node000003"><a xlink:title=" ">
<path fill="none" stroke="#63b8ff" d="M117.99,-54.98C100.53,-46.5 73.49,-33.35 53.33,-23.54"/>
<polygon fill="#63b8ff" stroke="#63b8ff" points="54.86,-20.4 44.33,-19.17 51.79,-26.69 54.86,-20.4"/>
</a>
</g>
</g>
<!-- Node4 -->
<g id="Node000004" class="node">
<title>Node4</title>
<g id="a_Node000004"><a xlink:title=" ">
<polygon fill="#e0e0e0" stroke="#999999" points="127.5,-19 71.5,-19 71.5,0 127.5,0 127.5,-19"/>
<text text-anchor="middle" x="99.5" y="-7" font-family="Helvetica,sans-Serif" font-size="10.00">stddef.h</text>
</a>
</g>
</g>
<!-- Node2&#45;&gt;Node4 -->
<g id="edge3_Node000002_Node000004" class="edge">
<title>Node2&#45;&gt;Node4</title>
<g id="a_edge3_Node000002_Node000004"><a xlink:title=" ">
<path fill="none" stroke="#63b8ff" d="M129.56,-54.75C124.52,-47.34 117.16,-36.5 110.99,-27.41"/>
<polygon fill="#63b8ff" stroke="#63b8ff" points="113.85,-25.39 105.33,-19.09 108.06,-29.33 113.85,-25.39"/>
</a>
</g>
</g>
<!-- Node5 -->
<g id="Node000005" class="node">
<title>Node5</title>
<g id="a_Node000005"><a xlink:title=" ">
<polygon fill="#e0e0e0" stroke="#999999" points="199,-19 146,-19 146,0 199,0 199,-19"/>
<text text-anchor="middle" x="172.5" y="-7" font-family="Helvetica,sans-Serif" font-size="10.00">string.h</text>
</a>
</g>
</g>
<!-- Node2&#45;&gt;Node5 -->
<g id="edge4_Node000002_Node000005" class="edge">
<title>Node2&#45;&gt;Node5</title>
<g id="a_edge4_Node000002_Node000005"><a xlink:title=" ">
<path fill="none" stroke="#63b8ff" d="M141.61,-54.75C146.78,-47.34 154.35,-36.5 160.69,-27.41"/>
<polygon fill="#63b8ff" stroke="#63b8ff" points="163.65,-29.29 166.5,-19.09 157.91,-25.29 163.65,-29.29"/>
</a>
</g>
</g>
<!-- Node6 -->
<g id="Node000006" class="node">
<title>Node6</title>
<g id="a_Node000006"><a xlink:title=" ">
<polygon fill="#e0e0e0" stroke="#999999" points="279.5,-19 217.5,-19 217.5,0 279.5,0 279.5,-19"/>
<text text-anchor="middle" x="248.5" y="-7" font-family="Helvetica,sans-Serif" font-size="10.00">stdbool.h</text>
</a>
</g>
</g>
<!-- Node2&#45;&gt;Node6 -->
<g id="edge5_Node000002_Node000006" class="edge">
<title>Node2&#45;&gt;Node6</title>
<g id="a_edge5_Node000002_Node000006"><a xlink:title=" ">
<path fill="none" stroke="#63b8ff" d="M153.66,-54.98C171.75,-46.5 199.78,-33.35 220.69,-23.54"/>
<polygon fill="#63b8ff" stroke="#63b8ff" points="222.45,-26.59 230.01,-19.17 219.47,-20.25 222.45,-26.59"/>
</a>
</g>
</g>
<!-- Node7&#45;&gt;Node2 -->
<g id="edge7_Node000007_Node000002" class="edge">
<title>Node7&#45;&gt;Node2</title>
<g id="a_edge7_Node000007_Node000002"><a xlink:title=" ">
<path fill="none" stroke="#63b8ff" d="M162.22,-109.75C157.79,-102.42 151.34,-91.73 145.88,-82.7"/>
<polygon fill="#63b8ff" stroke="#63b8ff" points="148.85,-80.84 140.69,-74.09 142.86,-84.46 148.85,-80.84"/>
</a>
</g>
</g>
</g>
</svg>
