<?xml version="1.0" encoding="UTF-8" standalone="no"?>
<!DOCTYPE svg PUBLIC "-//W3C//DTD SVG 1.1//EN"
 "http://www.w3.org/Graphics/SVG/1.1/DTD/svg11.dtd">
<!-- Generated by graphviz version 2.43.0 (0)
 -->
<!-- Title: CW_Platform.h Pages: 1 -->
<svg width="343pt" height="192pt"
 viewBox="0.00 0.00 342.50 192.00" xmlns="http://www.w3.org/2000/svg" xmlns:xlink="http://www.w3.org/1999/xlink">
<g id="graph0" class="graph" transform="scale(1 1) rotate(0) translate(4 188)">
<title>CW_Platform.h</title>
<!-- Node1 -->
<g id="Node000001" class="node">
<title>Node1</title>
<g id="a_Node000001"><a xlink:title=" ">
<polygon fill="#999999" stroke="#666666" points="189,-184 100,-184 100,-165 189,-165 189,-184"/>
<text text-anchor="middle" x="144.5" y="-172" font-family="Helvetica,sans-Serif" font-size="10.00">CW_Platform.h</text>
</a>
</g>
</g>
<!-- Node2 -->
<g id="Node000002" class="node">
<title>Node2</title>
<g id="a_Node000002"><a xlink:href="CW__SecureChannel_8h.html" target="_top" xlink:title=" ">
<polygon fill="white" stroke="#666666" points="204.5,-129 84.5,-129 84.5,-110 204.5,-110 204.5,-129"/>
<text text-anchor="middle" x="144.5" y="-117" font-family="Helvetica,sans-Serif" font-size="10.00">CW_SecureChannel.h</text>
</a>
</g>
</g>
<!-- Node1&#45;&gt;Node2 -->
<g id="edge1_Node000001_Node000002" class="edge">
<title>Node1&#45;&gt;Node2</title>
<g id="a_edge1_Node000001_Node000002"><a xlink:title=" ">
<path fill="none" stroke="#63b8ff" d="M144.5,-154.66C144.5,-145.93 144.5,-135.99 144.5,-129.09"/>
<polygon fill="#63b8ff" stroke="#63b8ff" points="141,-154.75 144.5,-164.75 148,-154.75 141,-154.75"/>
</a>
</g>
</g>
<!-- Node4 -->
<g id="Node000004" class="node">
<title>Node4</title>
<g id="a_Node000004"><a xlink:href="fuzz__der_8cpp.html" target="_top" xlink:title=" ">
<polygon fill="white" stroke="#666666" points="101,-19 0,-19 0,0 101,0 101,-19"/>
<text text-anchor="middle" x="50.5" y="-7" font-family="Helvetica,sans-Serif" font-size="10.00">fuzz/fuzz_der.cpp</text>
</a>
</g>
</g>
<!-- Node1&#45;&gt;Node4 -->
<g id="edge8_Node000001_Node000004" class="edge">
<title>Node1&#45;&gt;Node4</title>
<g id="a_edge8_Node000001_Node000004"><a xlink:title=" ">
<path fill="none" stroke="#63b8ff" d="M115.33,-160.23C101.63,-152.74 86.05,-142.22 75.5,-129 48.75,-95.47 48.76,-40.13 49.86,-19.03"/>
<polygon fill="#63b8ff" stroke="#63b8ff" points="113.93,-163.45 124.42,-164.92 117.14,-157.23 113.93,-163.45"/>
</a>
</g>
</g>
<!-- Node5 -->
<g id="Node000005" class="node">
<title>Node5</title>
<g id="a_Node000005"><a xlink:href="CryptnoxWallet_8h.html" target="_top" xlink:title=" ">
<polygon fill="white" stroke="#666666" points="329,-74 228,-74 228,-55 329,-55 329,-74"/>
<text text-anchor="middle" x="278.5" y="-62" font-family="Helvetica,sans-Serif" font-size="10.00">CryptnoxWallet.h</text>
</a>
</g>
</g>
<!-- Node1&#45;&gt;Node5 -->
<g id="edge7_Node000001_Node000005" class="edge">
<title>Node1&#45;&gt;Node5</title>
<g id="a_edge7_Node000001_Node000005"><a xlink:title=" ">
<path fill="none" stroke="#63b8ff" d="M168.44,-159.7C182.1,-151.43 199.28,-140.34 213.5,-129 235.7,-111.29 258.82,-87.09 270.59,-74.29"/>
<polygon fill="#63b8ff" stroke="#63b8ff" points="166.43,-156.82 159.63,-164.94 170.01,-162.84 166.43,-156.82"/>
</a>
</g>
</g>
<!-- Node3 -->
<g id="Node000003" class="node">
<title>Node3</title>
<g id="a_Node000003"><a xlink:href="CW__SecureChannel_8cpp.html" target="_top" xlink:title=" ">
<polygon fill="white" stroke="#666666" points="210,-74 79,-74 79,-55 210,-55 210,-74"/>
<text text-anchor="middle" x="144.5" y="-62" font-family="Helvetica,sans-Serif" font-size="10.00">CW_SecureChannel.cpp</text>
</a>
</g>
</g>
<!-- Node2&#45;&gt;Node3 -->
<g id="edge2_Node000002_Node000003" class="edge">
<title>Node2&#45;&gt;Node3</title>
<g id="a_edge2_Node000002_Node000003"><a xlink:title=" ">
<path fill="none" stroke="#63b8ff" d="M144.5,-99.66C144.5,-90.93 144.5,-80.99 144.5,-74.09"/>
<polygon fill="#63b8ff" stroke="#63b8ff" points="141,-99.75 144.5,-109.75 148,-99.75 141,-99.75"/>
</a>
</g>
</g>
<!-- Node2&#45;&gt;Node4 -->
<g id="edge6_Node000002_Node000004" class="edge">
<title>Node2&#45;&gt;Node4</title>
<g id="a_edge6_Node000002_Node000004"><a xlink:title=" ">
<path fill="none" stroke="#63b8ff" d="M111.63,-105.64C96.86,-98.36 80.35,-87.9 69.5,-74 56.61,-57.49 52.44,-32.36 51.11,-19.21"/>
<polygon fill="#63b8ff" stroke="#63b8ff" points="110.45,-108.95 121,-109.97 113.39,-102.6 110.45,-108.95"/>
</a>
</g>
</g>
<!-- Node2&#45;&gt;Node5 -->
<g id="edge4_Node000002_Node000005" class="edge">
<title>Node2&#45;&gt;Node5</title>
<g id="a_edge4_Node000002_Node000005"><a xlink:title=" ">
<path fill="none" stroke="#63b8ff" d="M175.37,-106.29C200.2,-96.47 234.49,-82.91 256.58,-74.17"/>
<polygon fill="#63b8ff" stroke="#63b8ff" points="174.04,-103.05 166.03,-109.98 176.62,-109.56 174.04,-103.05"/>
</a>
</g>
</g>
<!-- Node3&#45;&gt;Node4 -->
<g id="edge3_Node000003_Node000004" class="edge">
<title>Node3&#45;&gt;Node4</title>
<g id="a_edge3_Node000003_Node000004"><a xlink:title=" ">
<path fill="none" stroke="#63b8ff" d="M120.5,-49.97C103.31,-40.28 80.69,-27.52 65.88,-19.17"/>
<polygon fill="#63b8ff" stroke="#63b8ff" points="118.97,-53.12 129.4,-54.98 122.41,-47.02 118.97,-53.12"/>
</a>
</g>
</g>
<!-- Node6 -->
<g id="Node000006" class="node">
<title>Node6</title>
<g id="a_Node000006"><a xlink:href="CryptnoxWallet_8cpp.html" target="_top" xlink:title=" ">
<polygon fill="white" stroke="#666666" points="334.5,-19 222.5,-19 222.5,0 334.5,0 334.5,-19"/>
<text text-anchor="middle" x="278.5" y="-7" font-family="Helvetica,sans-Serif" font-size="10.00">CryptnoxWallet.cpp</text>
</a>
</g>
</g>
<!-- Node5&#45;&gt;Node6 -->
<g id="edge5_Node000005_Node000006" class="edge">
<title>Node5&#45;&gt;Node6</title>
<g id="a_edge5_Node000005_Node000006"><a xlink:title=" ">
<path fill="none" stroke="#63b8ff" d="M278.5,-44.66C278.5,-35.93 278.5,-25.99 278.5,-19.09"/>
<polygon fill="#63b8ff" stroke="#63b8ff" points="275,-44.75 278.5,-54.75 282,-44.75 275,-44.75"/>
</a>
</g>
</g>
</g>
</svg>
